<?xml version="1.0" encoding="utf-8"?>
<!-- Generator: Adobe Illustrator 27.9.0, SVG Export Plug-In . SVG Version: 6.00 Build 0)  -->
<svg version="1.1" xmlns="http://www.w3.org/2000/svg" xmlns:xlink="http://www.w3.org/1999/xlink" x="0px" y="0px"
	 viewBox="0 0 5000 4000" style="enable-background:new 0 0 5000 4000;" xml:space="preserve">
<style type="text/css">
	.st0{opacity:0.2;}
	.st1{fill:none;stroke:#0F31AC;stroke-width:20;stroke-linecap:round;stroke-miterlimit:10;stroke-dasharray:50,50,50,50,50,50;}
	.st2{opacity:0.33;fill:#DE2D31;}
	.st3{opacity:0.15;fill:#040C2B;}
	.st4{fill:#DE2D31;}
	.st5{fill:#E3E9F7;}
	.st6{fill:#FFFFFF;}
	.st7{opacity:0.15;}
	.st8{fill:#040C2B;}
	.st9{fill:#ACBCF8;}
	.st10{opacity:0.67;fill:#050505;}
	.st11{fill:#DE995F;}
	.st12{opacity:0.38;fill:#050505;}
	.st13{fill:#081956;}
	.st14{opacity:0.3;}
	.st15{opacity:0.13;}
	.st16{fill:#CC8B5B;}
	.st17{opacity:0.1;}
	.st18{fill:none;stroke:#000000;stroke-width:2.0633;stroke-miterlimit:10;}
	.st19{opacity:0.38;fill:none;stroke:#000000;stroke-width:2.0633;stroke-miterlimit:10;}
	.st20{opacity:0.38;}
	.st21{fill:none;}
</style>
<g id="Background">
	<g class="st0">
		<g>
			<path class="st1" d="M1284.18,1141.94c-55.3-26.01-146.76,16.28-175.93,78.16c-55.67,118.12,124.38,289.19,189.85,270.83
				C1371.28,1470.41,1385.72,1189.69,1284.18,1141.94z"/>
			<path class="st1" d="M1007.56,1409.48c-19.74-11.42-228.8-132.35-347.12-36.64c-83.08,67.2-83.87,210.86-21.44,291.59
				c123.65,159.9,507.07,88.21,546.85-26.21C1212.64,1561.18,1086.87,1455.36,1007.56,1409.48z"/>
			<path class="st1" d="M1276.58,3384c508.89-126.31,1087.12-254.9,1985-233c502.15,12.25,615.94-143.58,996.51-337.33
				c339.21-172.68,505.81-516.06,403.49-710.67c-103.3-196.47-417.94-118.25-675.62-410.71c-117.35-133.2-96.7-226.56-164.45-374.27
				C3606.96,850.31,2802.83,484.74,2406.3,678.21c-523.87,255.59-76.01,1359.96-661.6,1661.64
				c-370.41,190.84-650.38-175.51-1016.12,104.15c-181.22,138.57-402.86,332.95-420,544C308.58,2988,284.58,3504,1276.58,3384z"/>
		</g>
		<path class="st2" d="M4088.14,2809.3c0,0-92.18,122.22-184.38,289.91c-83.12,151.22-146.33,354.98-160.29,525.1
			c-39.15-1.85-82.15-3.59-128.64-5.24c-275.34-9.77-672.84-15.89-1114.83-15.89c-502.48,0-947.45,7.92-1220.8,20.1
			c-9.41,0.42-18.62,0.84-27.62,1.27C910.31,3201.56,223.1,2464.63,855.52,2161.47c0,0,46.33-14.11,115.79-44.42
			c219.84-95.95,671.6-354.14,621.35-840.95c0,0-17.12-90.84-17.12-217.24c0-295.56,93.57-785.48,718.25-763.12
			c378.29,13.56,726.68,206.06,937.31,514.18c206.6,302.21,536.94,674.04,805.96,461.76c62.1-49.02,144.21-67.18,220.87-45.63
			C4451.57,1280.44,4671.55,1562.01,4088.14,2809.3z"/>
	</g>
	<path class="st3" d="M4590.48,3640.77c0,20-935.94,36.22-2090.48,36.22c-651.43,0-1233.27-5.16-1616.66-13.26
		c-88.31-1.87-166.07-3.88-231.74-6.03c-43.25-1.41-81.25-2.89-113.56-4.41c-83.12-3.89-128.52-8.11-128.52-12.52
		c0-5.61,73.68-10.93,205.19-15.66c53.86-1.95,117.4-3.79,189.56-5.51c379.69-9.11,997.76-15.04,1695.72-15.04
		c613.94,0,1166.07,4.58,1548.52,11.89C4385.27,3622.87,4590.48,3631.41,4590.48,3640.77z"/>
</g>
<g id="Design">
	<g>
		<rect x="1572.44" y="1868.86" class="st3" width="1855.11" height="1346.14"/>
		<rect x="1573.13" y="1699.88" class="st4" width="1854.4" height="169.36"/>
		<g>
			<g>
				<g>
					<ellipse class="st5" cx="1658.9" cy="1776.65" rx="28.5" ry="27.1"/>
				</g>
			</g>
			<g>
				<g>
					<ellipse class="st5" cx="1742.02" cy="1776.65" rx="28.5" ry="27.1"/>
				</g>
			</g>
			<g>
				<g>
					<ellipse class="st5" cx="1825.14" cy="1776.65" rx="28.5" ry="27.1"/>
				</g>
			</g>
		</g>
		<g>
			<g>
				<rect x="1628.26" y="1939.73" class="st6" width="1743.47" height="1204.41"/>
			</g>
		</g>
		<g>
			<g>
				<path class="st4" d="M2770.45,2235.87l0,529.55c0,20.06-16.26,36.32-36.32,36.32h-468.26c-20.06,0-36.32-16.26-36.32-36.32
					l0-627.01c0-20.06,16.26-36.32,36.32-36.32h368.36l2.43,2.39L2770.45,2235.87z"/>
				<path class="st7" d="M2770.45,2235.87h-104.22c-16.33,0-29.57-13.24-29.57-29.57v-101.83L2770.45,2235.87z"/>
			</g>
			<g>
				<g>
					<path class="st6" d="M2629.89,2541.38L2629.89,2541.38c-4.11,0-7.71-2.65-9.02-6.54c-3.43-10.12-14.64-20.11-31.91-28.15
						c-23.6-10.99-55.2-17.05-88.96-17.05s-65.36,6.05-88.96,17.05c-17.27,8.04-28.48,18.03-31.91,28.15
						c-1.32,3.89-4.92,6.54-9.02,6.54h0c-6.48,0-11.08-6.34-9.04-12.49c5.08-15.28,19.54-28.97,41.95-39.41
						c26.06-12.14,60.5-18.82,96.97-18.82s70.91,6.68,96.97,18.82c22.41,10.44,36.87,24.13,41.95,39.41
						C2640.97,2535.04,2636.37,2541.38,2629.89,2541.38z"/>
				</g>
				<g>
					<circle class="st6" cx="2430.23" cy="2401.84" r="39.39"/>
					<circle class="st6" cx="2569.77" cy="2401.84" r="39.39"/>
				</g>
			</g>
			<g>
				<path class="st8" d="M2348.39,2980.86h-18.16l-29.32-50.99h-0.42c0.58,9.01,0.88,15.43,0.88,19.27v31.72h-12.77v-67.4h18.03
					l29.28,50.48h0.32c-0.46-8.76-0.69-14.95-0.69-18.58v-31.9h12.86V2980.86z"/>
				<path class="st8" d="M2426.54,2947.07c0,11.16-2.77,19.73-8.3,25.73c-5.53,5.99-13.46,8.99-23.79,8.99s-18.26-3-23.79-8.99
					c-5.53-5.99-8.3-14.6-8.3-25.82c0-11.22,2.77-19.78,8.32-25.7c5.55-5.92,13.5-8.87,23.86-8.87c10.36,0,18.28,2.98,23.77,8.94
					C2423.79,2927.31,2426.54,2935.88,2426.54,2947.07z M2377.34,2947.07c0,7.53,1.43,13.2,4.29,17.01
					c2.86,3.81,7.13,5.72,12.82,5.72c11.4,0,17.1-7.58,17.1-22.73c0-15.18-5.67-22.77-17.01-22.77c-5.69,0-9.97,1.91-12.86,5.74
					C2378.79,2933.86,2377.34,2939.54,2377.34,2947.07z"/>
				<path class="st8" d="M2520.95,2946.51c0,11.1-3.16,19.59-9.47,25.49s-15.44,8.85-27.36,8.85h-19.09v-67.4h21.16
					c11,0,19.55,2.9,25.63,8.71C2517.91,2927.98,2520.95,2936.1,2520.95,2946.51z M2506.11,2946.88c0-14.48-6.39-21.71-19.18-21.71
					h-7.61v43.89h6.13C2499.22,2969.06,2506.11,2961.67,2506.11,2946.88z"/>
				<path class="st8" d="M2576.18,2980.86l-4.89-16.04h-24.57l-4.89,16.04h-15.4l23.79-67.68h17.47l23.88,67.68H2576.18z
					 M2567.89,2952.83c-4.52-14.54-7.06-22.76-7.63-24.66c-0.57-1.91-0.98-3.41-1.22-4.52c-1.01,3.93-3.92,13.66-8.71,29.18H2567.89
					z"/>
				<path class="st8" d="M2626.07,2980.86h-14.29v-55.51h-18.3v-11.89h50.9v11.89h-18.3V2980.86z"/>
				<path class="st8" d="M2696,2980.86l-4.89-16.04h-24.57l-4.89,16.04h-15.4l23.79-67.68h17.47l23.88,67.68H2696z M2687.71,2952.83
					c-4.52-14.54-7.06-22.76-7.63-24.66c-0.57-1.91-0.98-3.41-1.22-4.52c-1.01,3.93-3.92,13.66-8.71,29.18H2687.71z"/>
			</g>
		</g>
	</g>
	<g>
		<g>
			<g>
				<g>
					<path class="st6" d="M3681.86,2619.77h56.34c42.42,0,76.81-34.39,76.81-76.81v0c0-42.42-34.39-76.81-76.81-76.81h-56.34
						c-42.42,0-76.81,34.39-76.81,76.81v0C3605.05,2585.38,3639.44,2619.77,3681.86,2619.77z"/>
				</g>
			</g>
			<g>
				<path class="st6" d="M3685.67,2607.38h48.72c0,0-4.36,39.23-48.72,58.72C3685.67,2666.1,3709,2631.74,3685.67,2607.38z"/>
			</g>
			<g>
				<path class="st9" d="M3698.02,2558.23v-4.65c0-4.02,0.86-7.52,2.58-10.5c1.72-2.97,4.86-6.14,9.43-9.49
					c4.4-3.14,7.3-5.7,8.71-7.67c1.4-1.97,2.11-4.17,2.11-6.6c0-2.72-1.01-4.8-3.02-6.22c-2.01-1.42-4.82-2.14-8.42-2.14
					c-6.29,0-13.45,2.05-21.5,6.16l-6.85-13.77c9.34-5.24,19.25-7.86,29.73-7.86c8.63,0,15.49,2.07,20.58,6.22s7.64,9.68,7.64,16.59
					c0,4.61-1.05,8.59-3.14,11.94c-2.1,3.35-6.08,7.12-11.94,11.31c-4.02,2.98-6.57,5.24-7.64,6.79c-1.07,1.55-1.6,3.58-1.6,6.1
					v3.77H3698.02z M3696.01,2579.73c0-3.52,0.94-6.18,2.83-7.98c1.89-1.8,4.63-2.7,8.23-2.7c3.48,0,6.17,0.92,8.08,2.77
					c1.91,1.84,2.86,4.48,2.86,7.92c0,3.31-0.96,5.92-2.89,7.83c-1.93,1.91-4.61,2.86-8.05,2.86c-3.52,0-6.24-0.93-8.17-2.8
					C3696.97,2585.76,3696.01,2583.13,3696.01,2579.73z"/>
			</g>
		</g>
		<g>
			<polygon class="st10" points="3529.4,3583.47 3555.75,3593.72 3548.07,3630.89 3503.06,3616.79 			"/>
			<path class="st8" d="M3162.2,3501.12c0,0-70.26-8.33-85.63,29.48c0,0-1.1,94.2,42.81,100.6c0,0,37.32,3.84,61.48-12.82
				l140.51-16.02l95.51-6.41L3162.2,3501.12z"/>
			<path class="st8" d="M3584.29,3546.3c0,0,36.87,59.31,15.05,82.88c-3.38,3.65,1.33,8.08,8.44,8.06l148.31-0.28
				c0,0,84.53,15.38,100.99-49.34c0,0,9.88-68.57-97.7-80.1c-107.58-11.53-1.1-3.84-1.1-3.84S3633.14,3512.66,3584.29,3546.3z"/>
			<path class="st11" d="M3643.02,3549.18l-0.41,3.79l-8.38,78.23l-156.43-13.78l51.49-67.38l0.66-0.87
				C3643.02,3551.75,3643.02,3549.18,3643.02,3549.18z"/>
			<path class="st12" d="M3643.02,3549.18l-0.41,3.79l-82.48,2.29l-30.85-5.22l0.66-0.87
				C3643.02,3551.75,3643.02,3549.18,3643.02,3549.18z"/>
			<path class="st13" d="M3883.06,3414.18l-182.16,35.39L3461.89,3496l-189.85-44.19l-299.78-69.78
				c-13.7-102.94,202.01-43.66,202.01-43.66l140.44,15.75h0.02l82.39,9.24l186.62,25.63l59.28-23.46l70.26-27.8
				C3902.65,3321.38,3883.06,3414.18,3883.06,3414.18z"/>
			<polygon class="st14" points="3700.9,3449.57 3461.89,3496 3272.04,3451.81 3220.38,3421.03 3314.71,3354.11 3314.73,3354.11 
				3397.12,3363.35 3583.74,3388.99 3643.02,3365.53 			"/>
			<path class="st13" d="M3195.13,3531.24l257.98-67.28c0,0,184.43-68.57,216.26-64.72c0,0,228.34-117.27,212.97,26.27
				c0,0,26.35,112.78-380.93,130.08L3195.13,3531.24z"/>
			<path class="st15" d="M3372.42,3484.78l28.54-8.33c21.6,14.4,62.19,26.38,88.92,38.45c30.24,13.66,66.96,26.27,102.09,34.6
				c-23.05,2.78-46.11,5.55-69.16,8.33L3372.42,3484.78z"/>
			<path class="st13" d="M3572.22,3551.43c0,0-75.2,59.91-24.7,79.78c0,0-291.83-32.76-525.27-163.17
				c-17.69-9.88-30.24-22.49-36.14-36.36c-21.38-50.29-50.92-164.67,179.38-67.04c0,0,178.9,60.78,237.85,113.07
				c11.29,10.01,24.69,19.15,40.24,26.98C3480.48,3523.27,3543.04,3552.3,3572.22,3551.43z"/>
			<path class="st16" d="M3393.83,2886.36l136.12,0.24l43.91,82.66c0,0-85.63,129.44-208.58,14.1c5.47-18.58,23.62-45.82,29.09-64.4
				C3403.16,2899.74,3402.06,2901.02,3393.83,2886.36z"/>
			<path class="st6" d="M3747.01,3021.58l-30.43,243.73l-468.75-4.48c0,0,32.18-124.12,25.76-144.27c-0.39-1.23-0.92-2.07-1.61-2.48
				l-129.54-4.48c0,0,0.99-17.78,5.22-41.24c7.16-39.59,23.57-95.35,60.1-109.03c6.02-2.25,23.6-9.29,23.6-9.29
				s159.73-41.97,163.02-31.08c0,0-8.78,127.52,164.67,21.79C3559.05,2940.75,3759.88,2990.59,3747.01,3021.58z"/>
			<path class="st6" d="M3651.8,3277.49l9.6,80.76l108.22-32.84c24.53-7.44,41.34-21.49,44.36-37.53
				c2.69-14.28,0.98-34.61-11.79-62.94l-24.15-107.01c0,0,11.53-74.01-44.46-115.66c0,0-20.31,122.71-56.54,143.22l-7.68,102.53
				L3651.8,3277.49z"/>
			<path class="st17" d="M3348.31,2978.88l-74.72,137.68c-0.39-1.23-0.92-2.07-1.61-2.48l-129.54-4.48c0,0,0.99-17.78,5.22-41.24
				l131.49-122.81C3279.15,2945.55,3335.14,2978.23,3348.31,2978.88z"/>
			<path class="st11" d="M3372.64,2897c-3.2,21.42-7,28-18.33,62.01l-17.56,33.32l-49.4-33.32l13.17-13.46l-6.59-60.88l16.67-40.78
				c5.93-14.49,20.63-23.74,36.2-22.06C3364.25,2823.71,3381.3,2839.04,3372.64,2897z"/>
			<polygon class="st15" points="3240.14,3103.83 3274.42,3126.06 3263.74,3194.5 3354.31,2991.05 3321.92,2982.34 			"/>
			<path class="st6" d="M3285.15,2945.55c0,0,55.99,32.68,69.16,33.32l-105.39,194.16c0,0-67.74,83.91-137.29,20.8
				c-42.84-38.87-29.04-90.68,33.62-118.94c0.88-0.4,1.78-0.79,2.68-1.19L3285.15,2945.55z"/>
			<path class="st15" d="M3393.28,2917.04c0,0,65.15,94.04,150.59-4.25l-26.54-38.69l-108.13,12.28L3393.28,2917.04z"/>
			<path class="st11" d="M3365.29,2753.31c0,0,125.15-68.57,175.64-8.33c0,0,104.29,105.73-58.18,200.57
				C3482.75,2945.55,3377.36,2992.33,3365.29,2753.31z"/>
			<path d="M3378.86,2853.25l-32.62-54.58c-7.49-12.52-10.87-25.76-9.91-39.01c3.03-41.5,28.36-121.19,183.74-86.45
				c0,0,136.12,59.59,60.38,135.85l-25.25,55.11c0,0,3.29-99.32-35.13-104.45c0,0-87.82,19.22-144.91,17.94
				C3375.17,2777.67,3373.52,2845.91,3378.86,2853.25z"/>
			<g>
				<ellipse class="st18" cx="3409.2" cy="2824.44" rx="29.64" ry="17.3"/>
				<ellipse class="st18" cx="3499.21" cy="2821.88" rx="29.64" ry="17.3"/>
				<path class="st18" d="M3438.51,2821.88c0,0,13.5,8.97,31.06,0"/>
				<line class="st18" x1="3379.56" y1="2824.44" x2="3364.74" y2="2814.51"/>
				<line class="st18" x1="3528.85" y1="2821.88" x2="3566.18" y2="2817.39"/>
			</g>
			<path class="st15" d="M3661.14,3274.6c0,0,32.93-25.63,72.45-28.2c0,0-8.78-5.77-32.93,0c0,0,21.96-13.46,47.2-8.33
				C3747.86,3238.08,3695.17,3218.21,3661.14,3274.6z"/>
			<path class="st4" d="M3225.6,3195.32l439.91-5.48c6.35-0.08,11.54,5.05,11.54,11.4v182.96c0,6.25-5.03,11.33-11.27,11.4
				l-431.13,4.8c-6.13,0.07-11.22-4.72-11.51-10.85l-8.78-182.29C3214.05,3200.82,3219.15,3195.4,3225.6,3195.32z"/>
			<path class="st19" d="M3009.61,3333.24"/>
			<path class="st19" d="M3213.79,3382.23"/>
			<g class="st20">
				<path class="st21" d="M3682.54,3392.9"/>
			</g>
			<path class="st15" d="M3234.1,3389.95c0,0-73.53-45.88-207.48-59.59c0,0,66.96-4.49,214.07,46.14L3234.1,3389.95z"/>
			<path class="st15" d="M3677.6,3395.71c0,0,132.9-68.02,185.83-31.61c0,0-27.75-40.16-202.3,27.76L3677.6,3395.71z"/>
			<path class="st15" d="M3676.5,3145.16c0,0,73.55-55.11,71.36-83.3c0,0-19.76,24.99-25.25,29.48c0,0,27.44-33.96,16.47-47.42
				c0,0-15.32,42.66-26.87,43.44L3676.5,3145.16z"/>
			<path class="st15" d="M3675.96,3144.84c0,0,54.89-107.65,43.91-113.42C3719.87,3031.42,3717.67,3052.57,3675.96,3144.84z"/>
		</g>
	</g>
</g>
</svg>
