<svg width="176" height="50" viewBox="0 0 176 50" fill="none" xmlns="http://www.w3.org/2000/svg">
<path d="M5.60001 24.04L5.63001 37.87C5.63147 37.9916 5.60801 38.1122 5.56103 38.2246C5.51406 38.3369 5.44455 38.4387 5.3567 38.5237C5.26885 38.6088 5.16448 38.6753 5.0499 38.7194C4.93531 38.7634 4.81289 38.784 4.69001 38.78L1.07001 38.64C0.703343 38.6267 0.52001 38.4367 0.52001 38.07L0.51001 1.02C0.51001 0.713331 0.666676 0.556671 0.980009 0.550004C6.08668 0.443338 11.17 0.440002 16.23 0.540002C23.84 0.690002 30.14 3.27 29.83 11.83C29.35 25.14 15.93 23.7 6.19001 23.46C5.79668 23.4533 5.60001 23.6467 5.60001 24.04ZM5.62001 5.69V18.23C5.62001 18.3679 5.6748 18.5002 5.77231 18.5977C5.86983 18.6952 6.0021 18.75 6.14001 18.75H17.39C19.2704 18.75 21.0738 18.062 22.4034 16.8374C23.733 15.6128 24.48 13.9519 24.48 12.22V11.7C24.48 9.96813 23.733 8.30721 22.4034 7.0826C21.0738 5.85798 19.2704 5.17 17.39 5.17H6.14001C6.0021 5.17 5.86983 5.22479 5.77231 5.32231C5.6748 5.41982 5.62001 5.55209 5.62001 5.69Z" fill="#DE2D31"/>
<path d="M90.74 12.19V1.01C90.74 0.670002 90.91 0.5 91.25 0.5L95.13 0.510002C95.2971 0.510002 95.4573 0.575324 95.5755 0.691597C95.6936 0.80787 95.76 0.965563 95.76 1.13V38.11C95.76 38.53 95.5533 38.74 95.14 38.74H91.57C91.398 38.7405 91.2322 38.6757 91.106 38.5588C90.9798 38.4419 90.9026 38.2815 90.89 38.11L90.77 36.49C90.7233 35.9033 90.4833 35.8067 90.05 36.2C85.01 40.74 77.77 40.46 74.09 35.07C71.21 30.85 70.64 22.29 72.86 17.56C76.32 10.2133 82.1633 8.49667 90.39 12.41C90.6233 12.5233 90.74 12.45 90.74 12.19ZM88.16 15.67C75.74 8.92 73.78 28.71 79.37 33.93C82.39 36.75 87.51 35.12 89.79 31.9C91.55 29.43 90.73 22.27 90.74 19.16C90.75 16.95 89.86 16.6 88.16 15.67Z" fill="#DE2D31"/>
<path d="M153.16 10.36V4.71C153.16 4.29 153.37 4.08333 153.79 4.09L157.6 4.15001C158.06 4.15667 158.293 4.39 158.3 4.85L158.4 10.21C158.402 10.3587 158.462 10.5007 158.566 10.6068C158.67 10.7129 158.811 10.7749 158.96 10.78L162.22 10.9C162.747 10.92 162.993 11.1933 162.96 11.72L162.8 14.42C162.773 14.8733 162.533 15.0967 162.08 15.09L159 15.05C158.6 15.0433 158.393 15.24 158.38 15.64C158.22 21.0333 158.237 26.3933 158.43 31.72C158.54 34.56 159.88 35.87 162.77 34.86C162.851 34.8313 162.938 34.8229 163.024 34.8354C163.109 34.8479 163.19 34.881 163.261 34.9319C163.331 34.9827 163.389 35.05 163.429 35.1279C163.469 35.2059 163.49 35.2923 163.49 35.38L163.5 38.14C163.5 38.4667 163.34 38.6667 163.02 38.74C159.01 39.7 153.68 39.29 153.49 34.18C153.257 28 153.14 21.82 153.14 15.64C153.14 15.5647 153.125 15.4903 153.096 15.421C153.066 15.3517 153.023 15.2891 152.969 15.2368C152.915 15.1845 152.851 15.1437 152.78 15.1167C152.71 15.0898 152.635 15.0773 152.56 15.08L150.47 15.12C150.383 15.1226 150.297 15.1079 150.216 15.0767C150.135 15.0454 150.061 14.9983 149.997 14.9379C149.934 14.8775 149.884 14.8051 149.848 14.7249C149.812 14.6446 149.793 14.558 149.79 14.47L149.73 11.41C149.723 11.0033 149.927 10.8033 150.34 10.81L152.64 10.86C152.708 10.8613 152.775 10.8494 152.838 10.8249C152.901 10.8003 152.959 10.7637 153.007 10.7171C153.056 10.6706 153.094 10.615 153.12 10.5537C153.147 10.4924 153.16 10.4265 153.16 10.36Z" fill="#DE2D31"/>
<path d="M38.14 13.64C40.08 11.22 42.62 10.1233 45.76 10.35C45.9459 10.3638 46.1272 10.4146 46.2932 10.4993C46.4592 10.5841 46.6066 10.7012 46.7267 10.8437C46.8469 10.9862 46.9374 11.1513 46.9929 11.3293C47.0484 11.5072 47.0678 11.6944 47.05 11.88L46.77 14.82C46.7603 14.9216 46.7299 15.0201 46.6808 15.1096C46.6317 15.1991 46.5648 15.2775 46.4843 15.3403C46.4038 15.403 46.3114 15.4486 46.2126 15.4744C46.1139 15.5001 46.0109 15.5054 45.91 15.49C42.4967 14.9633 39.7767 16.04 37.75 18.72C37.5228 19.0183 37.3999 19.3837 37.4 19.76L37.39 38.04C37.39 38.223 37.3184 38.3985 37.1908 38.5279C37.0633 38.6573 36.8904 38.73 36.71 38.73H32.86C32.6956 38.73 32.5379 38.6647 32.4216 38.5484C32.3053 38.4321 32.24 38.2744 32.24 38.11V11.43C32.24 11.2752 32.3008 11.1267 32.4093 11.0163C32.5178 10.9059 32.6653 10.8426 32.82 10.84L36.68 10.81C36.7654 10.8087 36.8502 10.8242 36.9295 10.8556C37.0089 10.8871 37.0813 10.9339 37.1426 10.9933C37.2039 11.0527 37.2528 11.1236 37.2867 11.202C37.3206 11.2804 37.3387 11.3646 37.34 11.45L37.38 13.38C37.3831 13.467 37.4126 13.551 37.4644 13.6209C37.5163 13.6908 37.5882 13.7433 37.6705 13.7715C37.7529 13.7997 37.8419 13.8022 37.9257 13.7787C38.0095 13.7552 38.0843 13.7069 38.14 13.64Z" fill="#DE2D31"/>
<path d="M131.19 37.51L131.2 48.7C131.2 49.14 130.983 49.3567 130.55 49.35L126.67 49.27C126.27 49.2633 126.07 49.06 126.07 48.66L126.1 11.5C126.107 11.0733 126.323 10.8633 126.75 10.87L130.58 10.94C131.007 10.9467 131.22 11.16 131.22 11.58V13.27C131.221 13.3343 131.241 13.3968 131.278 13.4499C131.314 13.5029 131.365 13.5442 131.425 13.5687C131.484 13.5931 131.549 13.5996 131.613 13.5874C131.676 13.5752 131.734 13.5448 131.78 13.5C137.64 7.69999 146.77 10.3 149.44 17.76C152.15 25.37 150.25 37.36 140.63 39.13C137.57 39.69 134.593 39.0567 131.7 37.23C131.36 37.0167 131.19 37.11 131.19 37.51ZM134.67 34.59C139.97 36.73 143.47 34.71 144.86 29.31C146.33 23.62 145.12 11.74 136.25 14.73C133.26 15.74 131.25 17.97 131.23 21.41C131.217 24.3633 131.21 27.3167 131.21 30.27C131.21 32.98 132.44 33.69 134.67 34.59Z" fill="#DE2D31"/>
<path d="M71.0925 27.2321C71.1089 30.3749 69.8762 33.3954 67.6656 35.6293C65.455 37.8632 62.4475 39.1274 59.3047 39.1439L57.0647 39.1557C55.5086 39.1639 53.966 38.8654 52.5252 38.2774C51.0844 37.6895 49.7735 36.8234 48.6674 35.7288C47.5613 34.6342 46.6816 33.3325 46.0786 31.8979C45.4755 30.4633 45.1609 28.924 45.1528 27.3679L45.1275 22.5279C45.1111 19.3851 46.3438 16.3646 48.5544 14.1307C50.765 11.8968 53.7725 10.6326 56.9153 10.6161L59.1553 10.6043C60.7114 10.5962 62.254 10.8946 63.6948 11.4826C65.1356 12.0706 66.4465 12.9366 67.5526 14.0312C68.6587 15.1258 69.5384 16.4275 70.1414 17.8621C70.7445 19.2967 71.0591 20.836 71.0672 22.3921L71.0925 27.2321ZM58.03 35.65C60.1836 35.65 62.2489 34.5143 63.7717 32.4926C65.2945 30.471 66.15 27.729 66.15 24.87C66.15 22.011 65.2945 19.269 63.7717 17.2474C62.2489 15.2258 60.1836 14.09 58.03 14.09C55.8764 14.09 53.8111 15.2258 52.2883 17.2474C50.7655 19.269 49.91 22.011 49.91 24.87C49.91 27.729 50.7655 30.471 52.2883 32.4926C53.8111 34.5143 55.8764 35.65 58.03 35.65Z" fill="#DE2D31"/>
<path d="M117.05 20.98C117.88 15.62 115.14 14.48 110.52 14.33C106.947 14.21 104.663 15.61 103.67 18.53C103.55 18.87 103.31 19.0367 102.95 19.03L99.31 18.97C99.2269 18.969 99.145 18.9494 99.0703 18.9128C98.9957 18.8762 98.9301 18.8234 98.8784 18.7583C98.8267 18.6932 98.7902 18.6174 98.7714 18.5364C98.7527 18.4554 98.7522 18.3712 98.77 18.29C99.7833 13.6233 102.783 11.0733 107.77 10.64C114.27 10.07 121.96 10.37 122.17 19.01C122.33 25.3633 122.343 31.7267 122.21 38.1C122.203 38.5533 121.977 38.7767 121.53 38.77L117.88 38.73C117.487 38.73 117.28 38.53 117.26 38.13L117.2 36.8C117.173 36.2933 116.953 36.1867 116.54 36.48C111.7 39.94 103.45 41 99.41 35.8C97.89 33.8333 97.5033 31.5567 98.25 28.97C100.28 21.9 110.32 21.52 116.43 21.52C116.79 21.52 116.997 21.34 117.05 20.98ZM106.2 26.68C100.95 29.04 102.81 35.44 108.71 35.36C115.183 35.2667 118.003 32.17 117.17 26.07C117.123 25.73 116.93 25.5367 116.59 25.49C112.71 24.91 109.247 25.3067 106.2 26.68Z" fill="#DE2D31"/>
<path d="M163.64 26.26L174.72 26.22C174.78 26.22 174.84 26.2319 174.896 26.255C174.952 26.2781 175.003 26.312 175.045 26.3547C175.088 26.3974 175.122 26.4482 175.145 26.504C175.168 26.5598 175.18 26.6196 175.18 26.68L175.22 37.76C175.218 37.8495 175.19 37.9364 175.139 38.0101C175.089 38.0839 175.017 38.1413 174.935 38.1752C174.852 38.2092 174.761 38.2183 174.673 38.2014C174.585 38.1844 174.504 38.1423 174.44 38.08L163.32 27.04C163.258 26.9757 163.216 26.8947 163.199 26.8068C163.182 26.719 163.191 26.6281 163.225 26.5453C163.259 26.4625 163.316 26.3914 163.39 26.3407C163.464 26.2901 163.551 26.262 163.64 26.26Z" fill="#DE2D31"/>
</svg>
